<svg width="21" height="21" viewBox="0 0 21 21" fill="none" xmlns="http://www.w3.org/2000/svg">
<rect x="1.5" y="1.27148" width="18" height="18" fill="#F9F6F3" stroke="#000101" stroke-width="2"/>
<path d="M16.3421 5.71061C16.3848 5.75215 16.4188 5.80189 16.442 5.85685C16.4652 5.91182 16.4772 5.97089 16.4772 6.03058C16.4772 6.09027 16.4652 6.14935 16.442 6.20431C16.4188 6.25928 16.3848 6.30901 16.3421 6.35056L12.7858 9.98456C12.7431 10.0261 12.7091 10.0758 12.6859 10.1308C12.6627 10.1858 12.6507 10.2448 12.6507 10.3045C12.6507 10.3642 12.6627 10.4233 12.6859 10.4783C12.7091 10.5332 12.7431 10.583 12.7858 10.6245L16.3649 14.2128C16.4076 14.2543 16.4416 14.3041 16.4648 14.359C16.488 14.414 16.5 14.4731 16.5 14.5328C16.5 14.5925 16.488 14.6515 16.4648 14.7065C16.4416 14.7615 16.4076 14.8112 16.3649 14.8527L15.0655 16.1441C14.977 16.226 14.8611 16.2715 14.7406 16.2715C14.6202 16.2715 14.5042 16.226 14.4158 16.1441L10.8139 12.5672C10.7715 12.524 10.7209 12.4897 10.6652 12.4663C10.6094 12.4429 10.5495 12.4308 10.4891 12.4308C10.4286 12.4308 10.3687 12.4429 10.313 12.4663C10.2572 12.4897 10.2066 12.524 10.1642 12.5672L6.58513 16.1326C6.49669 16.2146 6.38069 16.2601 6.26028 16.2601C6.13987 16.2601 6.02388 16.2146 5.93543 16.1326L4.63602 14.8527C4.59294 14.8102 4.55873 14.7595 4.53538 14.7036C4.51203 14.6477 4.5 14.5877 4.5 14.5271C4.5 14.4664 4.51203 14.4064 4.53538 14.3505C4.55873 14.2946 4.59294 14.2439 4.63602 14.2014L8.22649 10.6017C8.26957 10.5591 8.30378 10.5084 8.32713 10.4525C8.35049 10.3966 8.36251 10.3366 8.36251 10.276C8.36251 10.2153 8.35049 10.1553 8.32713 10.0994C8.30378 10.0435 8.26957 9.99281 8.22649 9.95027L4.63602 6.36198C4.59294 6.31945 4.55873 6.26875 4.53538 6.21284C4.51203 6.15692 4.5 6.09691 4.5 6.0363C4.5 5.97568 4.51203 5.91567 4.53538 5.85975C4.55873 5.80384 4.59294 5.75314 4.63602 5.71061L5.94683 4.40785C5.98925 4.36466 6.03982 4.33036 6.09559 4.30695C6.15136 4.28354 6.21122 4.27148 6.27168 4.27148C6.33214 4.27148 6.392 4.28354 6.44777 4.30695C6.50354 4.33036 6.55411 4.36466 6.59653 4.40785L10.1984 7.99614C10.2869 8.07806 10.4028 8.12355 10.5233 8.12355C10.6437 8.12355 10.7597 8.07806 10.8481 7.99614L14.393 4.41928C14.4354 4.37609 14.486 4.34179 14.5418 4.31838C14.5975 4.29497 14.6574 4.28291 14.7178 4.28291C14.7783 4.28291 14.8382 4.29497 14.8939 4.31838C14.9497 4.34179 15.0003 4.37609 15.0427 4.41928L16.3421 5.71061Z" fill="black"/>
</svg>
